# xmcd CD database file
#
# Track frame offsets:
#	150
#	13608
#	29079
#	43107
#	56078
#	71079
#	84607
#	99347
#	110710
#	124144
#	136114
#	147616
#	160633
#	173153
#	189007
#
# Disc length: 2702 seconds
#
# Revision: 0
# Processed by: cddbd v1.5.1PL0 Copyright (c) Steve Scherf et al.
# Submitted via: CDex 1.51
#
DISCID=d10a8c0f
DTITLE=Louis Armstrong - Louis Armstrong
DYEAR=1949
DGENRE=Jazz
TTITLE0=On the sunny side of the street
TTITLE1=La vie en rose
TTITLE2=That lucky old sun
TTITLE3=2:19 blues
TTITLE4=Wolverine blues
TTITLE5=You rascal you
TTITLE6=That's my home
TTITLE7=Love walked in
TTITLE8=Mahogany hall stomp
TTITLE9=Blues for yesterday
TTITLE10=Cut off my legs and call me "shorty"
TTITLE11=Swing that music
TTITLE12=C'est si bon
TTITLE13=Sugar
TTITLE14=Cabaret
EXTD=YEAR: 1949
EXTT0=
EXTT1=
EXTT2=
EXTT3=
EXTT4=
EXTT5=
EXTT6=
EXTT7=
EXTT8=
EXTT9=
EXTT10=
EXTT11=
EXTT12=
EXTT13=
EXTT14=
PLAYORDER=
